<svg width="64" height="64" viewBox="0 0 64 64" fill="none" xmlns="http://www.w3.org/2000/svg">
<rect width="64" height="64" rx="16" fill="#ECF5FF"/>
<path d="M32.0002 34C26.9902 34 22.9102 37.36 22.9102 41.5C22.9102 41.78 23.1302 42 23.4102 42H40.5902C40.8702 42 41.0902 41.78 41.0902 41.5C41.0902 37.36 37.0102 34 32.0002 34Z" fill="#1572D3"/>
<path d="M32 22C30.82 22 29.74 22.41 28.88 23.1C27.73 24.01 27 25.42 27 27C27 27.94 27.26 28.82 27.73 29.57C28.59 31.02 30.17 32 32 32C33.26 32 34.41 31.54 35.29 30.75C35.68 30.42 36.02 30.02 36.28 29.57C36.74 28.82 37 27.94 37 27C37 24.24 34.76 22 32 22ZM34.59 26.46L31.92 28.92C31.74 29.09 31.51 29.17 31.28 29.17C31.04 29.17 30.8 29.08 30.62 28.9L29.39 27.66C29.02 27.29 29.02 26.7 29.39 26.33C29.76 25.96 30.35 25.96 30.72 26.33L31.31 26.92L33.32 25.07C33.7 24.72 34.29 24.74 34.64 25.12C34.99 25.51 34.97 26.11 34.59 26.46Z" fill="#1572D3"/>
</svg>
