<svg width="79" height="67" viewBox="0 0 79 67" fill="none" xmlns="http://www.w3.org/2000/svg">
<rect width="78.7967" height="66.5394" fill="white"/>
<path d="M11.1846 23.0477C15.284 11.1625 26.6178 3.13192 39.3983 3.13192C52.1789 3.13192 63.5126 11.1625 67.612 23.0477V23.128H76.6147V22.084L72.9172 21.6825C70.5861 21.4416 70.1039 20.3976 69.4608 19.1127L69.3 18.7915C63.9145 7.38811 52.1789 0 39.3983 0C26.6178 0 14.8821 7.38811 9.41623 18.7915L9.25547 19.1127C8.6928 20.3976 8.13013 21.4416 5.87947 21.6825L2.10156 22.084V23.128H11.1042L11.1846 23.0477Z" fill="#5F5F5F"/>
<path d="M67.6924 42.8832V42.9635C63.5126 54.8487 52.1789 62.8793 39.3983 62.8793C26.6178 62.8793 15.284 54.8487 11.1846 42.9635V42.8832H2.10156V43.9272L5.87947 44.3287C8.21052 44.5696 8.6928 45.6136 9.33585 46.8985L9.49661 47.2197C14.8018 58.6231 26.6178 66.0112 39.3983 66.0112C52.1789 66.0112 63.9145 58.6231 69.3804 47.2197L69.5412 46.8985C70.1842 45.6136 70.6665 44.6499 72.9976 44.3287L76.7755 43.9272V42.8832H67.6924Z" fill="#5F5F5F"/>
<path d="M18.2584 28.8297H16.1685V37.9845H18.2584V28.8297Z" fill="#5F5F5F"/>
<path d="M11.2651 37.9042V28.8297H9.25553V35.6557L2.58391 28.8297H0.0117188V37.9042H2.02124V31.0783L8.77324 37.9042H11.2651Z" fill="#5F5F5F"/>
<path d="M57.0017 28.8297L51.375 37.9845H53.7864L54.751 36.3784H61.2619L62.2264 37.9845H64.6379L59.0112 28.8297H57.0017ZM60.2973 34.6117H55.796L58.0466 30.9177L60.2973 34.6117Z" fill="#5F5F5F"/>
<path d="M45.668 36.0572C45.5876 36.0572 45.3465 36.0572 45.2661 36.0572H36.8261V37.9042H45.3465C45.4269 37.9042 45.9092 37.9042 45.9895 37.9042C47.7579 37.7436 48.4813 36.3784 48.4813 35.0935C48.4813 33.8086 47.6775 32.5238 46.0699 32.3631C45.8288 32.3631 45.5876 32.3631 45.4269 32.3631H39.8806C39.6394 32.3631 39.4787 32.3631 39.2375 32.2828C38.8356 32.2025 38.5945 31.8813 38.6749 31.4798C38.6749 31.0783 38.916 30.757 39.3179 30.6767C39.4787 30.5964 39.7198 30.5964 39.8806 30.5964H47.9187V28.7494H39.8002C39.5591 28.7494 39.2375 28.7494 38.9964 28.8297C37.6299 28.9903 36.585 30.1146 36.585 31.4798C36.585 32.6041 37.3084 33.9693 38.916 34.1299C39.2375 34.1299 39.4787 34.2102 39.8002 34.1299H45.1857C45.2661 34.1299 45.5072 34.1299 45.5876 34.1299C46.0699 34.2102 46.3914 34.6117 46.3914 35.0132C46.3914 35.5754 46.0699 35.9769 45.668 36.0572Z" fill="#5F5F5F"/>
<path d="M30.878 36.0572C30.7976 36.0572 30.5564 36.0572 30.4761 36.0572H22.1164V37.9042H30.5564C30.6368 37.9042 31.1191 37.9042 31.1995 37.9042C32.9679 37.7436 33.7717 36.3784 33.7717 35.1739C33.7717 33.9693 32.9679 32.6041 31.3603 32.4435C31.1191 32.4435 30.878 32.4435 30.7172 32.4435H25.1709C24.9298 32.4435 24.769 32.4435 24.5279 32.3632C24.126 32.2829 23.8848 31.9616 23.9652 31.5601C23.9652 31.1586 24.2064 30.8374 24.6083 30.757C24.769 30.6767 25.0102 30.6767 25.1709 30.6767H33.209V28.8297H25.0102C24.769 28.8297 24.4475 28.8297 24.2064 28.91C22.8399 29.0706 21.7949 30.1949 21.7949 31.5601C21.7949 32.6844 22.5184 34.0496 24.126 34.2102C24.4475 34.2102 24.6886 34.2905 25.0102 34.2102H30.3957C30.4761 34.2102 30.7172 34.2102 30.7976 34.2102C31.2799 34.2905 31.6014 34.692 31.6014 35.0935C31.6818 35.5754 31.2799 35.9769 30.878 36.0572Z" fill="#5F5F5F"/>
<path d="M78.7851 37.9042V28.8297H76.7755V35.6557L70.1039 28.8297H67.5317V37.9042H69.5413V31.0783L76.2933 37.9042H78.7851Z" fill="#5F5F5F"/>
<path d="M73.5604 60.4702C74.5249 60.4702 75.3287 61.2732 75.3287 62.2369C75.3287 63.2005 74.5249 64.0036 73.5604 64.0036C72.5958 64.0036 71.792 63.2005 71.792 62.2369C71.792 61.755 71.9528 61.3535 72.3547 60.952C72.5958 60.6308 73.0781 60.3898 73.5604 60.4702ZM73.5604 63.6021C73.9623 63.6021 74.2838 63.4415 74.5249 63.2005C74.7661 62.9596 74.9268 62.5581 74.9268 62.2369C74.9268 61.5141 74.2838 60.8717 73.5604 60.952C72.8369 60.952 72.1939 61.5944 72.1939 62.3172C72.1939 62.9596 72.7566 63.6021 73.5604 63.6021ZM72.8369 63.1202V61.3535C73.0781 61.3535 73.2388 61.2732 73.48 61.2732C73.8015 61.2732 74.2838 61.3535 74.2838 61.755C74.2838 61.996 74.123 62.1566 73.8819 62.1566C74.0427 62.2369 74.123 62.3975 74.2034 62.5581C74.2034 62.7187 74.2838 62.8793 74.3642 62.9596H73.9623C73.8819 62.799 73.8819 62.6384 73.8015 62.5581C73.7211 62.3172 73.5604 62.3172 73.2388 62.3172V63.0399L72.8369 63.1202ZM73.2388 62.0763C73.5604 62.0763 73.8819 62.0763 73.8819 61.8353C73.8819 61.6747 73.8015 61.5944 73.48 61.5944C73.3996 61.5944 73.3192 61.5944 73.2388 61.5944V62.0763Z" fill="#5F5F5F"/>
</svg>
