<svg width="225" height="18" viewBox="0 0 225 18" fill="none" xmlns="http://www.w3.org/2000/svg">
<path d="M213.78 11.2436L215.088 11.1381C215.624 11.0959 216.159 11.0326 216.652 10.9693C217.938 10.7795 219.031 10.442 219.932 9.97787C220.275 9.80911 220.446 9.68254 220.832 9.4083C221.968 8.6067 222.547 7.53086 222.632 6.05422C222.654 5.75889 222.632 5.52685 222.611 5.27371C222.547 4.34554 222.332 3.56503 221.946 2.95328C221.496 2.21496 220.853 1.6454 219.996 1.2235C219.139 0.801604 218.046 0.485182 216.781 0.295328C216.781 0.295328 214.916 0 212.151 0H191.018V17.5298H197.662V11.3701H206.686L216.845 17.5509H224.133L213.78 11.2436ZM210.758 2.0462C210.801 2.0462 210.822 2.0462 210.865 2.0462C211.615 2.0673 212.258 2.08839 212.816 2.15168C213.523 2.23605 214.123 2.38372 214.595 2.63686C215.088 2.88999 215.473 3.2697 215.666 3.73379C215.859 4.13459 215.945 4.64087 215.966 5.25262C215.966 5.29481 215.988 6.1386 215.945 6.5605C215.924 6.9824 215.816 7.44648 215.666 7.76291C215.516 8.10042 215.302 8.37466 215.002 8.6067C214.916 8.66998 214.83 8.73327 214.745 8.77546C214.316 9.0075 213.78 9.15517 213.094 9.23954C212.473 9.30283 211.68 9.34502 210.737 9.34502H197.619V2.0462H210.758Z" fill="#5F5F5F"/>
<path d="M21.8196 0.0209961V8.26908C21.8196 10.7372 20.8979 12.5724 19.076 13.7116C17.5114 14.703 15.2394 15.2093 12.3458 15.2093H0V17.5508H10.2453C13.096 17.5508 15.7109 17.4453 18.0044 17.2344C20.2549 17.0234 22.1625 16.6015 23.7057 15.9687C25.2061 15.357 26.385 14.471 27.1994 13.3318C27.9282 12.2982 28.3354 10.9481 28.4212 9.28164C28.4212 9.13397 28.4426 8.94412 28.4426 8.73317V0.0209961H21.8196Z" fill="#5F5F5F"/>
<path d="M97.8887 9.5138V15.2094H87.7506C82.435 15.2094 79.3485 13.5218 78.5126 10.231C78.1697 8.85986 78.384 7.55198 78.5126 7.0668C79.3271 3.73381 82.3707 2.10951 87.7506 2.10951H103.612V0.0211182H89.8296C86.9361 0.0211182 84.3212 0.126592 82.0278 0.316446C79.7986 0.5063 77.8696 0.928197 76.3264 1.53995C74.8046 2.1517 73.6471 3.01659 72.8541 4.15571C72.0825 5.23155 71.6967 6.68709 71.6538 8.48015C71.6538 8.52234 71.6538 8.56453 71.6538 8.62782C71.6538 8.7122 71.6538 8.79658 71.6538 8.90205C71.6752 10.7584 72.0825 12.2561 72.8755 13.3531C73.69 14.4922 74.8689 15.3782 76.3692 15.9899C77.9125 16.6228 79.8415 17.0447 82.0706 17.2556C84.364 17.4666 86.9575 17.572 89.8296 17.572H104.512V9.5138H97.8887Z" fill="#5F5F5F"/>
<path d="M53.6054 0.0211182H46.768L31.4429 17.5509H35.4081L38.859 13.6062H58.1279L61.5787 17.5509H68.952L53.6054 0.0211182ZM48.4827 2.59469L56.4775 11.7288H40.5094L48.4827 2.59469Z" fill="#5F5F5F"/>
<path d="M162.917 0.0211182L147.592 17.5509H151.558L155.008 13.5851H174.256L177.707 17.5509H185.101L169.776 0.0211182H162.917ZM172.648 11.7288H156.659L164.654 2.59469L172.648 11.7288Z" fill="#5F5F5F"/>
<path d="M137.969 0.0211182V8.90205C137.969 9.66146 137.862 10.3576 137.712 10.9904C136.854 14.218 133.789 15.8633 128.517 15.8844H127.852C122.558 15.8844 119.472 14.1969 118.636 10.9272C118.486 10.3154 118.4 9.64037 118.4 8.92315V0.0211182H111.755V9.17628C111.755 11.0748 112.163 12.6358 112.977 13.775C113.491 14.4711 114.135 15.1039 114.906 15.6102C115.378 15.9055 115.892 16.1798 116.471 16.4118C117.05 16.6439 117.671 16.8548 118.357 17.0236C119.493 17.3189 120.779 17.5298 122.194 17.6775C123.973 17.8463 125.987 17.9517 128.174 17.9517C130.381 17.9517 132.375 17.8463 134.154 17.6775C135.547 17.5509 136.833 17.34 137.969 17.0447C138.655 16.8759 139.276 16.665 139.855 16.4329C140.434 16.2009 140.948 15.9477 141.42 15.6313C142.213 15.125 142.856 14.5133 143.349 13.7961C144.163 12.6569 144.57 11.0959 144.57 9.19738V0.0211182H137.969Z" fill="#5F5F5F"/>
</svg>
