<svg width="173" height="49" viewBox="0 0 173 49" fill="none" xmlns="http://www.w3.org/2000/svg">
<path d="M-25.5735 13.5167C-25.4067 13.5086 -25.2399 13.4936 -25.073 13.4936C-19.4093 13.4923 -13.746 13.4924 -8.08228 13.4928C-7.48276 13.4928 -7.4819 13.4936 -7.48147 14.0825C-7.48062 14.7904 -7.48957 15.4983 -7.47763 16.2062C-7.47293 16.4908 -7.5634 16.6163 -7.86637 16.6453C-8.69717 16.7251 -9.52243 16.8591 -10.3537 16.9346C-11.4324 17.0328 -11.982 17.5691 -12.0204 18.72C-12.0579 19.8384 -12.0255 20.9593 -12.034 22.079C-12.0362 22.356 -11.8843 22.3918 -11.6645 22.3905C-10.9566 22.3863 -10.2487 22.3893 -9.54078 22.3893C-5.94958 22.3893 -2.35839 22.3897 1.2328 22.3888C1.74698 22.3888 1.7487 22.3867 1.74912 21.8785C1.74955 20.836 1.75595 19.7931 1.74528 18.7507C1.73376 17.6016 1.18842 17.0434 0.0384369 16.9321C-0.83077 16.848 -1.69614 16.7234 -2.56449 16.6278C-2.77998 16.6039 -2.85594 16.487 -2.85637 16.2971C-2.85893 15.4603 -2.85765 14.624 -2.85679 13.7872C-2.85637 13.5807 -2.75353 13.4808 -2.54358 13.4923C-2.45398 13.4975 -2.36351 13.4915 -2.27347 13.4915C3.36422 13.4915 9.00233 13.4915 14.64 13.4915C15.2297 13.4915 15.2302 13.4923 15.2306 14.0885C15.231 14.7836 15.2225 15.4787 15.2344 16.1738C15.2391 16.4618 15.1764 16.6129 14.8414 16.6466C13.8835 16.7426 12.9268 16.8604 11.9757 17.0089C11.2874 17.1164 10.8824 17.5491 10.7663 18.2378C10.713 18.5536 10.6742 18.8719 10.6746 19.1966C10.6797 22.9039 10.6797 26.6107 10.6746 30.318C10.6742 30.6427 10.7122 30.9614 10.7681 31.2763C10.9093 32.0734 11.4534 32.4873 12.3618 32.574C13.2182 32.6555 14.0704 32.7818 14.9255 32.8748C15.158 32.9 15.2323 33.0113 15.231 33.2264C15.2268 34.0504 15.2263 34.8739 15.2306 35.6979C15.2319 35.9288 15.1282 36.0278 14.9029 36.0167C14.8128 36.0124 14.7228 36.0175 14.6328 36.0175C8.99508 36.0175 3.35696 36.0175 -2.28074 36.0175C-2.85978 36.0175 -2.86106 36.0167 -2.86234 35.4449C-2.86362 34.7498 -2.85722 34.0547 -2.86447 33.3595C-2.86789 33.0626 -2.80174 32.8961 -2.44629 32.8629C-1.52631 32.7767 -0.606747 32.6653 0.305559 32.5176C1.15898 32.3794 1.63519 31.846 1.6578 30.9896C1.68938 29.8063 1.66677 28.6214 1.67402 27.4372C1.6753 27.203 1.57331 27.1134 1.34801 27.1198C1.0907 27.127 0.833403 27.1202 0.575668 27.1202C-3.44053 27.1202 -7.4563 27.1202 -11.4725 27.1202C-12.0323 27.1202 -12.0328 27.121 -12.0332 27.6617C-12.0336 28.6269 -12.0293 29.5925 -12.0357 30.5578C-12.0375 30.8441 -11.9935 31.1236 -11.9282 31.3975C-11.7575 32.1118 -11.2408 32.4844 -10.3933 32.5714C-9.53736 32.6589 -8.68564 32.7831 -7.82966 32.8701C-7.56126 32.8974 -7.47934 33.0165 -7.48147 33.2652C-7.4883 34.0504 -7.49257 34.8355 -7.47976 35.6207C-7.47464 35.9245 -7.59541 36.0261 -7.89154 36.0214C-8.70229 36.0086 -9.51347 36.0175 -10.3242 36.0175C-15.2156 36.0175 -20.107 36.0179 -24.9979 36.0167C-25.1904 36.0167 -25.3832 36.0017 -25.5757 35.9936C-25.5757 34.9635 -25.5757 33.9339 -25.5757 32.9038C-24.5059 32.7741 -23.4349 32.655 -22.3672 32.5104C-21.6393 32.4114 -21.2429 31.9574 -21.1038 31.2469C-21.0538 30.9917 -21.0406 30.7383 -21.0406 30.481C-21.0406 27.7172 -21.0402 24.9534 -21.0406 22.19C-21.0406 21.0332 -21.0291 19.8759 -21.047 18.7195C-21.0637 17.6451 -21.5731 17.0724 -22.593 16.9483C-23.5864 16.8275 -24.5814 16.7196 -25.5757 16.6061C-25.5736 15.5764 -25.5735 14.5463 -25.5735 13.5167Z" fill="#5F5F5F"/>
<path d="M31.8167 36.6887C31.128 36.6192 30.438 36.5607 29.7506 36.4779C26.7649 36.1178 23.8714 35.4427 21.2688 33.8545C18.3216 32.056 16.5221 29.468 16.1453 26.009C15.7724 22.5864 16.6809 19.5538 19.2083 17.1168C20.7483 15.6315 22.6138 14.688 24.6318 14.0334C26.6091 13.3917 28.6433 13.0533 30.7119 12.86C32.5498 12.6884 34.3893 12.6735 36.2255 12.7379C39.5572 12.8549 42.8369 13.3072 45.9237 14.6671C48.4187 15.7659 50.4801 17.3733 51.7231 19.8666C52.6273 21.6805 52.9572 23.6084 52.7908 25.6318C52.4144 30.2023 49.8093 33.0724 45.7731 34.8368C43.6349 35.7717 41.3724 36.2433 39.0588 36.4856C38.3957 36.5552 37.7322 36.6213 37.0691 36.6892C35.3183 36.6887 33.5675 36.6887 31.8167 36.6887ZM42.3756 24.6986C42.4042 24.0227 42.3321 23.2815 42.2177 22.5442C41.8158 19.9451 40.4554 18.1546 37.8384 17.4987C35.6605 16.953 33.4599 16.9517 31.2709 17.4556C28.7653 18.0326 27.2718 19.6191 26.7653 22.1239C26.4022 23.9203 26.4111 25.7244 26.793 27.5205C27.2995 29.9006 28.7192 31.4325 31.0891 32.015C33.3481 32.5701 35.6268 32.5714 37.8815 31.9975C40.1452 31.4214 41.5414 29.9587 42.0722 27.6762C42.295 26.7195 42.3931 25.7513 42.3756 24.6986Z" fill="#5F5F5F"/>
<path d="M172.164 35.9163C172.01 35.9244 171.856 35.9402 171.703 35.9402C165.614 35.9415 159.526 35.9415 153.437 35.941C152.831 35.941 152.83 35.9402 152.83 35.3236C152.83 34.6157 152.838 33.9078 152.827 33.1999C152.823 32.9242 152.924 32.8214 153.203 32.7936C154.034 32.7117 154.862 32.5982 155.69 32.4971C155.91 32.4702 156.119 32.4079 156.315 32.3093C156.878 32.0268 157.054 31.5694 156.785 30.9976C156.494 30.3776 156.059 29.8455 155.686 29.2745C155.556 29.0748 155.341 29.1346 155.155 29.1342C152.015 29.1312 148.874 29.132 145.733 29.132C144.562 29.132 143.39 29.1389 142.219 29.1273C141.945 29.1248 141.763 29.2037 141.622 29.4486C141.32 29.9722 140.986 30.4774 140.678 30.998C140.312 31.6163 140.489 32.1459 141.148 32.4501C141.691 32.701 142.286 32.62 142.853 32.7185C143.118 32.7646 143.389 32.771 143.658 32.7966C144.225 32.8508 144.225 32.8512 144.226 33.4333C144.226 34.0895 144.227 34.7462 144.225 35.4025C144.225 35.9385 144.223 35.9406 143.694 35.9406C140.245 35.9415 136.795 35.941 133.345 35.941C132.315 35.941 131.285 35.9304 130.256 35.947C129.92 35.9526 129.8 35.8429 129.809 35.5037C129.828 34.7445 129.823 33.985 129.811 33.2255C129.806 32.9383 129.9 32.8201 130.202 32.7915C131.059 32.7104 131.912 32.5948 132.766 32.489C133.503 32.3976 134.002 31.9696 134.38 31.3577C135.716 29.1888 137.058 27.0224 138.398 24.8555C139.596 22.9183 140.796 20.9819 141.992 19.0437C142.154 18.7822 142.325 18.5257 142.335 18.1967C142.356 17.5635 141.944 17.0843 141.312 17.0182C140.098 16.8914 138.886 16.7515 137.671 16.6384C137.385 16.6119 137.297 16.4997 137.301 16.2292C137.311 15.47 137.319 14.7101 137.298 13.951C137.288 13.5985 137.406 13.4837 137.761 13.4854C140.181 13.4978 142.601 13.4918 145.02 13.4918C148.058 13.4918 151.096 13.514 154.134 13.4799C155.226 13.4675 155.998 13.8963 156.582 14.7916C159.162 18.7476 161.754 22.6964 164.341 26.6477C165.356 28.1984 166.374 29.7465 167.382 31.3023C167.914 32.1241 168.664 32.518 169.634 32.5781C170.479 32.6306 171.321 32.7411 172.165 32.8261C172.164 33.8566 172.164 34.8866 172.164 35.9163ZM148.577 25.077C149.876 25.077 151.175 25.0779 152.475 25.0749C152.571 25.0744 152.702 25.1244 152.757 25.016C152.811 24.9114 152.703 24.8282 152.65 24.7463C151.309 22.7028 149.965 20.6623 148.628 18.6162C148.474 18.3798 148.395 18.3299 148.224 18.6119C146.98 20.6559 145.722 22.6908 144.471 24.7292C144.274 25.0501 144.288 25.0757 144.679 25.0761C145.978 25.0783 147.277 25.077 148.577 25.077Z" fill="#5F5F5F"/>
<path d="M83.3111 29.9932C83.3111 26.9495 83.3184 24.015 83.3069 21.081C83.3035 20.1947 83.3837 19.305 83.2497 18.4217C83.1029 17.4518 82.6425 17.037 81.673 16.938C80.817 16.8506 79.9649 16.726 79.1085 16.6393C78.8405 16.612 78.7496 16.4998 78.7654 16.2463C78.8179 15.3997 78.8657 14.5527 78.9096 13.7053C78.9194 13.5175 78.995 13.4168 79.1896 13.4198C79.2924 13.4211 79.3957 13.4168 79.4985 13.4168C83.9137 13.4168 88.3288 13.4164 92.744 13.4168C93.3205 13.4168 93.3213 13.4181 93.3218 13.9895C93.3226 14.7102 93.3145 15.4313 93.3252 16.152C93.329 16.42 93.2428 16.5386 92.9578 16.5676C92.1786 16.6466 91.4046 16.7776 90.625 16.8527C89.2983 16.9803 88.8072 17.4893 88.7709 18.8279C88.7671 18.9696 88.7696 19.1113 88.7696 19.2525C88.7696 24.6201 88.7696 29.9877 88.7696 35.3553C88.7696 35.9398 88.7688 35.9411 88.1735 35.9411C84.6723 35.9411 81.1712 35.9283 77.67 35.948C76.6459 35.9539 75.8958 35.5789 75.2715 34.751C71.5284 29.788 67.7559 24.8475 63.9927 19.8998C63.9099 19.791 63.8203 19.6877 63.7243 19.5704C63.6343 19.7129 63.6731 19.8439 63.6731 19.9664C63.6705 23.3387 63.6688 26.7114 63.6744 30.0837C63.6748 30.4558 63.7021 30.83 63.7482 31.1995C63.8506 32.0145 64.4075 32.4784 65.3164 32.5714C66.1723 32.6589 67.024 32.7839 67.88 32.8701C68.1518 32.8974 68.2252 33.0199 68.2227 33.2669C68.215 34.0393 68.206 34.8121 68.2265 35.5835C68.2355 35.9279 68.107 36.0243 67.7763 36.0226C65.5754 36.012 63.374 36.0171 61.173 36.0171C58.856 36.0171 56.5389 36.0107 54.2223 36.0235C53.8618 36.0256 53.7154 35.9262 53.7278 35.546C53.7517 34.8001 53.7423 34.0529 53.7312 33.3066C53.7269 33.0258 53.8089 32.8944 54.1161 32.8654C54.9469 32.7869 55.773 32.6563 56.6034 32.5748C57.7418 32.463 58.2739 31.8763 58.282 30.6371C58.2931 28.9124 58.2855 27.1876 58.2855 25.4624C58.2855 23.3515 58.2855 21.2405 58.2855 19.1292C58.2855 19.0003 58.2893 18.8714 58.2816 18.743C58.2125 17.5457 57.6975 17.0362 56.5146 16.9291C55.6834 16.854 54.8573 16.726 54.0273 16.6312C53.817 16.6073 53.7354 16.5058 53.7359 16.3056C53.738 15.4689 53.738 14.6325 53.7367 13.7957C53.7363 13.5879 53.8315 13.4868 54.0418 13.4932C54.1447 13.4966 54.2479 13.4919 54.3508 13.4919C59.2421 13.4919 64.1335 13.4919 69.0249 13.4919C69.231 13.4919 69.4371 13.4894 69.6428 13.497C70.4309 13.5252 71.0577 13.8145 71.554 14.4733C75.3551 19.5213 79.1759 24.5548 82.9907 29.5925C83.0739 29.7035 83.1635 29.8093 83.3111 29.9932Z" fill="#5F5F5F"/>
<path d="M107.47 35.9411C102.792 35.9411 98.9307 35.9416 95.0685 35.9407C94.5159 35.9407 94.5151 35.939 94.5142 35.3864C94.5134 34.6657 94.5228 33.9446 94.51 33.2238C94.5048 32.9354 94.6013 32.8227 94.9021 32.7912C95.8601 32.6909 96.8176 32.577 97.7683 32.425C98.4643 32.3141 98.8684 31.881 98.9785 31.1961C99.0335 30.8547 99.063 30.5053 99.0638 30.1592C99.0698 26.4515 99.0659 22.7443 99.0706 19.0366C99.0711 18.7123 99.0374 18.3927 98.9823 18.0773C98.8872 17.5341 98.5611 17.1795 98.0303 17.02C97.3224 16.807 96.5829 16.8126 95.8588 16.7119C94.5829 16.5348 94.8509 16.7993 94.8227 15.5969C94.8091 15.0178 94.8283 14.4384 94.8176 13.8589C94.8129 13.5994 94.9017 13.468 95.1735 13.4923C95.2375 13.4983 95.3019 13.4923 95.3664 13.4923C102.781 13.4928 110.197 13.4774 117.612 13.503C120.267 13.5124 122.867 13.9199 125.329 14.9756C127.913 16.0838 129.922 17.8047 130.968 20.4874C131.643 22.2203 131.821 24.0206 131.653 25.8699C131.506 27.4859 131.072 29.002 130.221 30.3875C129.172 32.0965 127.679 33.3117 125.895 34.178C123.735 35.226 121.431 35.7367 119.047 35.8575C114.918 36.0662 110.785 35.8729 107.47 35.9411ZM107.844 24.7532C107.844 26.8505 107.844 28.9478 107.844 31.0455C107.844 31.5883 107.845 31.5904 108.367 31.5904C110.658 31.5912 112.948 31.5947 115.239 31.5874C115.778 31.5857 116.316 31.5789 116.855 31.5051C119.103 31.1987 120.424 30.0538 120.939 27.8456C121.388 25.9181 121.358 23.9681 121.031 22.0244C120.848 20.9376 120.447 19.9438 119.616 19.1736C118.677 18.3026 117.511 17.9766 116.284 17.9532C113.634 17.9032 110.983 17.9331 108.332 17.9105C107.933 17.9071 107.834 18.0402 107.837 18.4221C107.853 20.5326 107.844 22.6431 107.844 24.7532Z" fill="#5F5F5F"/>
</svg>
